<svg width="192" height="192" fill="none" xmlns="http://www.w3.org/2000/svg"><path d="M96 26H74L64 36h-8.122a16 16 0 0 0-12.682 6.245L38 49l6 11-10 16 20.299 66.433a15.998 15.998 0 0 0 6.582 8.739L96 174M96 26h22l10 10h8.122c4.967 0 9.653 2.307 12.682 6.245L154 49l-6 11 10 16-20.299 66.433a15.998 15.998 0 0 1-6.582 8.739L96 174" stroke="#000" stroke-width="12" stroke-linecap="round" stroke-linejoin="round"/><path d="m76 124 20-12v-12l-16-8 4.731-15.545a8 8 0 0 0-5.123-9.92L66 62M116 124l-20-12v-12l16-8-4.731-15.545a8 8 0 0 1 5.123-9.92L126 62" stroke="#000" stroke-width="12" stroke-linecap="round" stroke-linejoin="round"/></svg>