<svg xmlns="http://www.w3.org/2000/svg" width="24" height="24" fill="none" xmlns:v="https://vecta.io/nano"><path d="M18.985 10.462c.604 0 1.112.224 1.433.694h.015v-.582h.776v4.134h-.776v-.642h-.015c-.291.493-.814.746-1.403.746-1.209 0-2.194-.911-2.194-2.104 0-1.321.948-2.247 2.164-2.247zm-12.338 0c1.142 0 2.216.896 2.201 2.209-.015 1.126-.976 2.182-2.339 2.141-1.155-.035-2.137-1.028-2.123-2.183.014-1.247 1.002-2.166 2.261-2.166zm6.254 0c.687 0 1.246.478 1.269 1.209h-.776c-.037-.298-.209-.5-.53-.5-.298 0-.485.202-.485.441 0 .35.359.455.769.582.582.179 1.119.53 1.119 1.298 0 .798-.582 1.321-1.388 1.321-.746 0-1.462-.507-1.462-1.462h.776c.037.5.291.754.701.754.359 0 .597-.231.597-.567 0-.284-.216-.47-.702-.627-1.015-.321-1.187-.761-1.187-1.232 0-.731.62-1.216 1.298-1.216zM0 9.187c.429 0 .776.347.776.776v1.052h.015c.246-.366.642-.552 1.157-.552.985 0 1.724.627 1.724 1.761v2.485h-.776v-2.246c0-.888-.343-1.291-1.03-1.291-.679 0-1.089.492-1.089 1.298v2.238H0zm10.505 0v1.388h.679v.709h-.679v3.425c-.429 0-.776-.348-.776-.776v-2.649h-.321v-.709h.321V9.187zm5.391 0v1.388h.679v.709h-.679v3.425c-.429 0-.776-.348-.776-.776v-2.649h-.321v-.709h.321V9.187zM24 10.463v.798c-.672.022-1.015.433-1.015 1.127v1.545c0 .429-.347.776-.776.776v-4.134h.724v.373h.015c.187-.276.508-.455 1.052-.485zm-4.992.709c-.819 0-1.481.74-1.405 1.614.063.721.652 1.303 1.375 1.318.82.016 1.47-.662 1.47-1.455 0-.805-.582-1.477-1.44-1.477zm-12.4 0a1.47 1.47 0 0 0-1.402 1.825c.163.653.758 1.125 1.43 1.107.794-.022 1.435-.656 1.435-1.477 0-.806-.65-1.455-1.463-1.455z" fill="#000"/></svg>