<svg xmlns="http://www.w3.org/2000/svg" width="256" height="256" viewBox="0 0 192 192" preserveAspectRatio="xMidYMid meet" xmlns:v="https://vecta.io/nano"><path d="M84.3 34.5c-8.6 2.4-15.4 6.4-22.4 13.4C51.8 58.1 47 69.9 47 84.8v6.7L39.2 95c-16.3 7.3-22.2 19.3-14.8 30.3 2.9 4.2 14.6 12.2 21.8 14.9 6.2 2.2 6.3 2.3 4.8 6.4-2.1 5.4 4.5 10 8.2 5.6.8-.9 1.9-2.9 2.5-4.3l1.1-2.6 6.9 1.3c3.7.7 10.1 1.6 14.1 1.9l7.2.7v3.3c0 3.7 2.2 6.5 5 6.5 2.9 0 5-2.8 5-6.6 0-3.3.1-3.4 4.1-3.4 2.3 0 8.9-.7 14.7-1.6 5.9-.8 10.8-1.2 10.9-.7a50.19 50.19 0 0 0 2.3 4c2.3 3.9 5.7 4.4 8.5 1.3 1.6-1.8 1.7-2.5.7-5.4-1.5-4.1-1.5-4.6.2-4.6.8 0 5.5-2 10.4-4.5 10.3-5.2 15.3-10.1 17.2-16.9 2.8-10.2-2.4-18.6-16.5-26.3l-7-3.8-.6-10c-.7-11.9-3.1-18.8-9.3-27.3-11.9-16.1-33.3-23.8-52.3-18.7zm19.9 9.6c19.6 4.1 31.8 20.7 31.8 43.2 0 9 1.2 10.9 9.4 14.8 2.6 1.2 6.9 4.2 9.6 6.6 4.1 3.6 5 5.1 5 7.7 0 4.3-3.1 7.6-10.7 11.4-25.6 13-65.5 14.5-96.4 3.8-7.5-2.6-19.4-9.7-20.3-12.2-2.4-6.4 1-10.5 13.4-16.2 4.7-2.2 9.2-4.8 10-5.7 1-1.2 1.6-5.5 2-13.4.7-14 3.1-20.2 11.1-28.6 9.5-10 22.1-14.1 35.1-11.4zM77.1 70.6c-2.7 3.5-2.7 5.9.4 8.9 3.9 3.9 9.3 2.7 11.5-2.5 1.2-2.8 1.1-3.4-.7-5.8-2.9-3.9-8.3-4.2-11.2-.6zM108 70c-2.9 2.9-2.6 7.4.6 9.9 1.5 1.2 3.4 2.1 4.4 2.1s2.9-.9 4.4-2.1c5-4 2.1-11.9-4.4-11.9-1.7 0-3.9.9-5 2zm-59.8 38c-3.1 1.3-3.8 3.7-1.7 6 3 3.4 10.5 2 10.5-1.9 0-3.4-4.9-5.6-8.8-4.1zm90.6 1.1c-1 .5-1.8 2.1-1.8 3.5 0 4.7 8.6 5.9 11 1.4 2.1-4-4.7-7.6-9.2-4.9zM63.4 119c-3 1.2-3.7 3.9-1.9 6.6 1.5 2.4 3.5 2.9 8.5 2.5 3.5-.3 5-1.9 5-5.2 0-2.2-.6-3.2-2.6-3.9-3-1.2-6.1-1.2-9 0zm56.6.8c-3.3 2.7-2.1 6.8 2.3 8 3.6 1 8.6-.1 9.9-2 3.6-5.7-6.5-10.6-12.2-6zm-31.3 4c-4 4.5-.4 9.2 7 9.2 3.1 0 4.8-.6 6.3-2.2 2.5-2.7 2.5-4.3 0-6.8-2.7-2.7-11-2.8-13.3-.2z"/></svg>