<svg xmlns="http://www.w3.org/2000/svg" width="256" height="256" viewBox="0 0 192 192" preserveAspectRatio="xMidYMid meet" xmlns:v="https://vecta.io/nano"><path d="M47.5 24.3c-11.2 3.8-17.9 9.8-21.6 19.6-4.1 11.1-1.5 23.3 6.8 32.2 11.9 12.8 32.7 12.7 45.2-.1 14.4-14.9 9.5-41-9.4-49.6-6.4-3-15.6-3.9-21-2.1zM65 36c12.8 6.5 14.7 25.5 3.5 34.7-7.3 6.1-16.6 6.5-24.9 1.3-11.8-7.5-12.3-27.1-.8-34.2C51 32.7 57.5 32.2 65 36zm62.1-8.1c-3.9 4.1-20.6 33-23 39.6-1.8 5-1 8.5 2.8 12.8l2.9 3.2h26 26l2.6-2.4c3.7-3.5 5-8.2 3.5-12.9-1.4-4.4-14.6-28.3-20.1-36.4-4.6-6.8-6.1-7.8-12.4-7.8-4.2 0-5.1.4-8.3 3.9zm13.7 12.3c5.7 8.5 16.4 28.7 16 30.5-.3 1.7-2 1.8-21.1 2.1L115 73v-2.4c0-2.3 14.6-29.2 17.8-32.9 2.5-2.8 4.9-2 8 2.5zm-15.2 65.7c-2.7 1.1-6.5 3.2-8.5 4.6-11.5 7.9-15.9 24.9-9.7 37.7 3.6 7.6 10.8 14 18.8 16.7 7.8 2.6 10.9 2.6 19.4 0 5.6-1.7 7.7-3.1 12.4-7.8 6.6-6.5 9.4-13.3 9.4-22.2-.1-6.8-4.4-16.7-9.5-21.8-7.9-8-22.3-11.1-32.3-7.2zm18.9 10.7c6.2 2.9 12.5 12.2 12.5 18.6 0 8.2-6.3 16.6-14.8 19.8-5.5 2.1-5.9 2.1-11 .5-9.1-2.8-16.1-11.1-16.2-19.1 0-8.4 6.6-18 14.6-21 4.4-1.6 10.1-1.1 14.9 1.2zm-112.4-8.9c-5.5 2.7-6.1 5.6-6.1 28 0 29.2.2 29.3 28.7 29.3 20.4 0 24.3-.7 27.5-5.3 2.2-3.1 2.3-3.9 2.3-23.7 0-30.4.4-30-29.5-30-16.1 0-20.1.3-22.9 1.7zm40.2 9.6c1.6 1.1 1.7 3.1 1.5 18.7l-.3 17.5-17.9.3c-13.7.2-18.1-.1-18.8-1-.4-.7-.8-8.6-.8-17.5 0-13.4.3-16.4 1.6-17.7s4.3-1.6 17.3-1.6c11 0 16.2.4 17.4 1.3z"/></svg>