<svg xmlns="http://www.w3.org/2000/svg" width="192" height="192" viewBox="0 0 50.8 50.8" xmlns:v="https://vecta.io/nano"><path d="M28.048 14.434c1.041-.555 7.536-4.624 7.772-4.761.02-.012.509-.347 1.156.023.902.485 7.055 4.252 7.309 4.437.439.254.694.716.694 1.225v13.496a1.37 1.37 0 0 1-.786 1.109c-.578.324-15.89 9.937-17.995 11.093-.486.3-1.087.3-1.596.023-2.059-1.202-17.417-10.815-17.995-11.093-.439-.208-.74-.647-.786-1.132V15.335a1.45 1.45 0 0 1 .648-1.202l7.355-4.46c.37-.208.786-.231 1.156-.023.185.092 6.962 4.529 8.026 4.945 1.573.716 3.539.67 5.042-.162z" fill="none" stroke="#000" stroke-width="3.175" stroke-linejoin="round"/></svg>