<svg xmlns="http://www.w3.org/2000/svg" width="192" height="192" viewBox="0 0 50.8 50.8" xmlns:v="https://vecta.io/nano"><path d="M20.147 24.265c-.618.637-.618 1.63 0 2.248s1.63.618 2.248 0 .618-1.611 0-2.248c-.618-.618-1.63-.618-2.248 0zm4.118 6.388c.637.618 1.63.618 2.248 0s.618-1.63 0-2.248-1.611-.618-2.248 0c-.618.618-.618 1.63 0 2.248zm6.388-4.118c.618-.618.618-1.63 0-2.248s-1.63-.618-2.248 0-.618 1.63 0 2.248 1.63.618 2.248 0zm-4.118-6.388c-.618-.618-1.63-.618-2.248 0s-.618 1.63 0 2.248 1.63.618 2.248 0 .618-1.63 0-2.248z"/><path d="M14.101 25.412l-7.656-7.679a2.14 2.14 0 0 1-.624-1.503v-.023c0-.555.208-1.087.624-1.527l8.234-8.234c.439-.416.995-.624 1.527-.624h.023a2.14 2.14 0 0 1 1.503.624l7.679 7.656 7.656-7.656c.416-.416.971-.624 1.527-.624h0c.555 0 1.11.208 1.527.624l8.234 8.234c.416.439.624.995.624 1.527 0 .555-.208 1.11-.624 1.527L25.412 36.699m11.287-11.287l7.656 7.656c.416.416.624.971.624 1.527s-.208 1.11-.624 1.527l-8.234 8.234c-.416.416-.971.624-1.527.624h0c-.555 0-1.11-.208-1.527-.624l-7.656-7.656-7.679 7.656c-.416.416-.971.624-1.527.624-.532 0-1.087-.208-1.527-.624l-8.234-8.234c-.416-.416-.624-.971-.624-1.527h0c0-.555.208-1.11.624-1.527l18.966-18.966" fill="none" stroke="#000" stroke-width="3.175"/></svg>