<svg xmlns="http://www.w3.org/2000/svg" width="24" height="24" fill="none" xmlns:v="https://vecta.io/nano"><path d="M12 2a10 10 0 1 0 0 20 10 10 0 1 0 0-20zm5.192 13.538a.31.31 0 0 1-.309.309h-1.307-.001a.31.31 0 0 1-.309-.309v-.001-4.023c0-.033-.038-.05-.067-.027l-2.767 2.767c-.112.11-.265.178-.435.178s-.323-.068-.435-.178l-2.767-2.767c-.023-.023-.067-.006-.067.027v4.023.001a.31.31 0 0 1-.309.309h-.001-1.306-.001a.31.31 0 0 1-.309-.309v-.001-7.073a.31.31 0 0 1 .31-.31h.897c.171.002.326.071.438.183l3.442 3.442a.15.15 0 0 0 .217 0l3.442-3.442c.117-.117.271-.183.438-.183h.896a.31.31 0 0 1 .31.31l.002 7.073v.001z" fill="#000"/></svg>