<svg xmlns="http://www.w3.org/2000/svg" width="24" height="24" fill="#000" xmlns:v="https://vecta.io/nano"><path d="M11.272 4.2l.457.639h0l.278.354a.5.5 0 0 0 .168.087c.043.013.148.02.449.02H19.4h.185a2 2 0 0 0-.877-.882C18.28 4.2 17.72 4.2 16.6 4.2zM7.801 3c-1.68 0-2.52-.001-3.162.326-.564.288-1.025.748-1.313 1.313C2.999 5.28 3 6.121 3 7.801v8.398c0 1.68-.001 2.52.326 3.162.288.564.748 1.025 1.313 1.313.642.327 1.482.326 3.162.326h8.398c1.68 0 2.52.001 3.162-.326a3.01 3.01 0 0 0 1.313-1.312c.327-.642.326-1.482.326-3.162V7.4c0-.56 0-.841-.109-1.055a1 1 0 0 0-.437-.437c-.214-.109-.493-.107-1.053-.107h-6.777c-.302 0-.452-.001-.59-.041a1 1 0 0 1-.336-.174c-.113-.089-.2-.21-.375-.455L10.279 3.67c-.175-.245-.264-.368-.377-.457a1.01 1.01 0 0 0-.336-.172C9.428 3.001 9.278 3 8.976 3H7.801zM5.389 13.801h3.877c.374 0 .709.061 1.076.42.351.344.383.734.383 1.006v3.297c0 .042-.035.076-.078.076H9.629c-.044 0-.08-.034-.08-.076v-2.947c0-.305-.174-.775-.791-.775H6.564c-.044 0-.08.034-.08.076v3.646c0 .042-.035.076-.078.076H5.389c-.044 0-.08-.034-.08-.076v-4.646c0-.043.036-.076.08-.076zm6.336 0h1.018c.043 0 .078.034.078.076v4.646c0 .042-.035.076-.078.076h-1.018c-.044 0-.08-.034-.08-.076v-4.646c0-.043.036-.076.08-.076zm-4.242 1.85h1.07c.043 0 .078.034.078.076v2.797c0 .042-.035.076-.078.076h-1.07c-.044 0-.078-.034-.078-.076v-2.797c0-.042.035-.076.078-.076z"/></svg>