<svg xmlns="http://www.w3.org/2000/svg" width="192" height="192" viewBox="0 0 50.8 50.8" xmlns:v="https://vecta.io/nano"><defs><clipPath id="A"/><clipPath id="B"><path d="M194.882 17.689c-8.14 0-16.056 1.697-23.235 4.807-7.211 3.045-13.011 6.73-18.427 12.018-5.32 5.32-9.71 12.114-12.819 19.229-3.045 7.179-4.807 14.293-4.807 22.433s1.764 16.056 4.807 23.234c3.109 7.083 7.499 13.14 12.819 18.427 5.416 5.352 11.217 9.71 18.427 12.819 7.179 3.045 15.094 4.807 23.235 4.807 8.204 0 16.056-1.764 23.234-4.807 7.115-3.109 13.139-7.467 18.427-12.819 5.32-5.288 9.71-11.345 12.819-18.427 3.045-7.179 4.807-15.094 4.807-23.234s-1.764-15.255-4.807-22.433c-3.109-7.115-7.499-13.909-12.819-19.229-5.288-5.288-11.313-8.973-18.427-12.018-7.179-3.109-15.03-4.807-23.234-4.807zM76.306 171.518c-8.14 0-15.255.897-22.433 4.006-7.179 3.077-13.877 7.499-19.229 12.819-5.32 5.32-8.973 12.05-12.018 19.229-3.109 7.115-4.807 14.293-4.807 22.433v129.793h271.603v36.054H17.819v6.41 16.825c0 8.172 1.731 16.056 4.807 23.235 3.045 7.179 6.73 13.075 12.018 18.427 5.352 5.288 12.05 9.742 19.229 12.819 7.179 3.109 14.293 4.807 22.433 4.807h237.152c8.14 0 15.255-1.697 22.433-4.807 7.211-3.077 13.941-7.531 19.229-12.819 5.352-5.352 9.71-11.249 12.819-18.427s4.006-15.062 4.006-23.235V402.26 289.293H100.342V254.04h271.603v-24.036c0-8.14-.864-15.319-4.006-22.433-3.077-7.179-7.467-13.909-12.819-19.229-5.288-5.32-12.018-9.742-19.229-12.819-7.179-3.109-14.293-4.006-22.433-4.006z" transform="matrix(.090479 0 0 .090744 97.18995 -.537283)" fill="none" stroke="#000" stroke-width="2.92" stroke-opacity="1"/></clipPath></defs><g transform="matrix(.578038 0 0 .578038 -50.496827 19.403731)" clip-path="url(#B)"><path clip-path="url(#A)" transform="translate(89.422 -3.429)" d="M25.4 4.232c-.748 0-1.475.158-2.135.443-.663.28-1.196.618-1.693 1.104-.489.489-.892 1.114-1.178 1.768-.28.66-.441 1.313-.441 2.061s.162 1.475.441 2.135c.286.651.689 1.207 1.178 1.693.498.492 1.031.892 1.693 1.178.66.28 1.387.443 2.135.443.754 0 1.475-.164 2.135-.443a5.4 5.4 0 0 0 1.693-1.178c.489-.486.892-1.043 1.178-1.693a5.48 5.48 0 0 0 .441-2.135c0-.748-.162-1.401-.441-2.061-.286-.654-.689-1.279-1.178-1.768s-1.04-.824-1.693-1.104c-.66-.286-1.381-.443-2.135-.443zM14.504 18.369c-.748 0-1.401.082-2.061.367s-1.276.689-1.768 1.178-.824 1.108-1.104 1.768c-.286.654-.443 1.314-.443 2.063V35.67h24.959v3.313H9.129v.59 1.547a5.42 5.42 0 0 0 .443 2.135c.28.66.618 1.202 1.104 1.693.492.486 1.108.895 1.768 1.178s1.313.441 2.061.441h21.793c.748 0 1.401-.156 2.061-.441a5.68 5.68 0 0 0 1.768-1.178c.492-.492.892-1.034 1.178-1.693s.369-1.384.369-2.135v-1.547-10.381H16.713v-3.24h24.959v-2.207c0-.748-.08-1.409-.369-2.062-.283-.66-.686-1.279-1.178-1.768a5.63 5.63 0 0 0-1.768-1.178c-.66-.286-1.313-.367-2.061-.367z" fill="none" stroke="#000" stroke-linejoin="round" paint-order="normal" stroke-width="10.757"/></g><path d="M26.804 14.27s1.061.943 1.066 3.164-1.066 3.206-1.066 3.206m4.974-8.182a10.18 10.18 0 0 0 1.384 4.981c.002 2.823-1.384 5.012-1.384 5.012m4.743-12.03s1.932 2.931 1.932 7.02-1.932 7.048-1.932 7.048m4.754-16.033s2.47 3.764 2.47 8.999-2.47 9.015-2.47 9.015" fill="none" stroke="#000" stroke-width="3.175" stroke-linecap="round" stroke-linejoin="round"/></svg>