<svg xmlns="http://www.w3.org/2000/svg" width="192" height="192" viewBox="0 0 50.8 50.8" xmlns:v="https://vecta.io/nano"><path d="M36.46 34.699h5.09c1.912 0 3.467-1.551 3.467-3.458s-1.555-3.458-3.467-3.458m-5.09-6.916h5.09c1.912 0 3.467 1.551 3.467 3.458s-1.555 3.458-3.467 3.458h-3.11m-7.266 6.916v-8.887c0-2.715-2.236-4.944-4.958-4.944-2.754 0-4.99 2.23-4.99 4.944m-9.916 8.887v-8.887c0-2.715 2.236-4.944 4.958-4.944 2.754 0 4.958 2.23 4.958 4.944v8.887" fill="none" stroke="#000" stroke-width="3.175" stroke-linecap="round" stroke-linejoin="round"/><path d="M5.782 14.513a1.509 1.506 0 0 0-1.509 1.507 1.509 1.506 0 0 0 1.509 1.507 1.509 1.506 0 0 0 1.509-1.507 1.509 1.506 0 0 0-1.509-1.507z"/><path d="M5.782 20.964v13.734" fill="none" stroke="#000" stroke-width="3.175" stroke-linecap="round" stroke-linejoin="round"/></svg>