<svg xmlns="http://www.w3.org/2000/svg" width="192" height="192" viewBox="0 0 50.8 50.8" xmlns:v="https://vecta.io/nano"><path d="M27.31 44.272c-.046-.137-.39-2.427.573-3.526s9.167-11.174 9.167-11.174c4.125-4.213 3.117-10.35-1.215-13.83l-11.963-9.8c-.092-.092-.481-.092-.367.504.023.114.39 2.427-.596 3.526-.963 1.099-9.144 11.151-9.144 11.151-4.148 4.236-3.14 10.35 1.192 13.83l11.963 9.823c.092.092.504.069.39-.504zm-6.761-22.181h9.694m-4.836 0v9.686" fill="none" stroke="#000" stroke-width="3.175" stroke-linecap="round" stroke-linejoin="round"/></svg>