<svg xmlns="http://www.w3.org/2000/svg" width="256" height="256" viewBox="0 0 192 192" preserveAspectRatio="xMidYMid meet" xmlns:v="https://vecta.io/nano"><path d="M39.5 27.9a23.4 23.4 0 0 0-11.6 11.6C26.2 43.2 26 47.2 26 96c0 58.1-.1 56.7 6.6 63.4S37.9 166 96 166s56.7.1 63.4-6.6 6.6-5.3 6.6-63.4.1-56.7-6.6-63.4S154.1 26 96 26c-48.8 0-52.8.2-56.5 1.9zm110.6 10.4c5.5 3.7 5.4 2.9 5.4 57.7s.1 54-5.4 57.7c-2.4 1.7-6.6 1.8-53.7 1.8-55.3 0-54.4.1-58.1-5.4-1.6-2.4-1.8-6.8-2.1-50.6l.3-52.2c.7-4.7 4.9-9.8 8.8-10.6 1.2-.3 24.7-.4 52.2-.3 45.9.1 50.2.2 52.6 1.9zM74.2 94.7l.3 32.8H79h4.5L84 105l.5-22.5 10.9 20c14.6 26.6 13.9 25.7 19 25.3l4.1-.3V95 62.5l-4.7-.3c-2.7-.2-4.9-.2-5 0s-.4 10.1-.8 22l-.5 21.8-9.9-18.3C82.8 60.6 83.8 62 78.5 62H74l.2 32.7z"/></svg>