<svg xmlns="http://www.w3.org/2000/svg" width="192" height="192" viewBox="0 0 50.8 50.8" xmlns:v="https://vecta.io/nano"><g transform="matrix(.202395 0 0 .20296 -.354769 -.223697)" stroke="#000"><g stroke-linecap="round" stroke-linejoin="round" stroke-width="15.665"><path d="M30.5 148.5S60 190 72 138.5c4.815-20.665-4.462-32.692-3.5-48.5 1.436-23.587 22.5-52 59-52" fill-opacity="0"/><path d="M224 148.234s-29.5 41.4-41.5-9.976c-4.815-20.615 4.462-32.614 3.5-48.383C184.564 66.345 163.5 38 127 38M46.224 194.458c25.839 2.418 32.23-6.6 48.433-36.05m-9.359 60.424C93.921 213.971 102 207.24 108 196.24s9-24.5 20-24.5 17.043 15.5 20 22.5 12.441 19.291 24.181 24.223" fill-opacity="0"/><path d="M161.135 158.407s9.815 42.26 48.815 34.26" fill-opacity="0"/></g><g stroke="none"><ellipse cx="146" cy="98" rx="7.844" ry="7.822" paint-order="stroke fill markers"/><ellipse cx="110" cy="98" rx="7.844" ry="7.822" paint-order="stroke fill markers"/></g></g></svg>