<svg xmlns="http://www.w3.org/2000/svg" width="192" height="192" viewBox="0 0 50.8 50.8" xmlns:v="https://vecta.io/nano"><path d="M30.774 9.717a3.88 3.88 0 0 0 3.879 3.879 3.88 3.88 0 0 0 3.879-3.879 3.88 3.88 0 0 0-6.622-2.743 3.88 3.88 0 0 0-1.136 2.743zM28.132 20.84c6.987-7.019 18.925 4.03 10.172 11.413l-13.09 12.713-4.792-4.654m3.935-15.859c-2.141-7.487-13.331-7.019-14.803.598-.428 2.106.187 4.602 1.633 6.136l5.836 5.642 6.05-5.902c2.463-3.172 1.285-5.85 1.285-6.473zM20.026 9.721a3.88 3.88 0 0 1-6.622 2.743 3.88 3.88 0 0 1 0-5.486 3.88 3.88 0 0 1 6.622 2.743z" fill="none" stroke="#000" stroke-width="3.175" stroke-linecap="round" stroke-linejoin="round"/></svg>