<svg xmlns="http://www.w3.org/2000/svg" width="192" height="192" fill="none" xmlns:v="https://vecta.io/nano"><path d="M96 78c-9.941 0-18 8.059-18 18s8.059 18 18 18 18-8.059 18-18-8.059-18-18-18zm0-62a80.03 80.03 0 0 0-68.107 38.027 80.02 80.02 0 0 0-3.359 77.93 6 6 0 1 0 10.719-5.395c-3.922-7.795-6.236-16.134-6.982-24.563H66.6c2.78 13.693 14.887 24 29.4 24s26.62-10.307 29.4-24h38.33c-.747 8.429-3.06 16.768-6.982 24.563a6 6 0 1 0 10.719 5.395 80.02 80.02 0 0 0-3.359-77.93A80.03 80.03 0 0 0 96 16zm0 12c23.607 0 45.507 12.226 57.893 32.322 5.636 9.145 8.905 19.319 9.822 29.678H125.4c-2.78-13.693-14.886-24-29.4-24S69.379 76.307 66.6 90H28.285c.918-10.358 4.186-20.533 9.822-29.678C50.493 40.226 72.393 28 96 28zm29.808 98c-13.734 0-25.007 11.267-25.007 25 0 13.724 11.269 25 25.007 25 13.73 0 24.993-11.276 24.993-25 0-13.733-11.267-25-24.993-25zm0 11.151A13.82 13.82 0 0 1 139.65 151c0 7.658-6.183 13.849-13.842 13.849-7.675 0-13.857-6.191-13.857-13.849a13.82 13.82 0 0 1 13.857-13.849zM66.2 126c-13.741 0-25 11.259-25 25s11.259 25 25 25 25-11.259 25-25a5.576 5.576 0 0 0-5.575-5.575H66.2a5.575 5.575 0 0 0 0 11.151h12.686c-2.125 4.891-6.963 8.274-12.686 8.274A13.76 13.76 0 0 1 52.35 151 13.76 13.76 0 0 1 66.2 137.151c3.667 0 7.192 1.459 9.784 4.051a5.575 5.575 0 1 0 7.886-7.884A25 25 0 0 0 66.2 126z" fill="#000" fill-rule="evenodd"/></svg>