<svg xmlns="http://www.w3.org/2000/svg" width="192" height="192" viewBox="0 0 50.8 50.8" xmlns:v="https://vecta.io/nano"><g stroke="#000" fill="none" transform="matrix(1.199675 0 0 1.200553 -5.396195 -4.72042)"><circle cx="92.313" cy="80.716" r="25.915" transform="matrix(.311389 0 0 .311389 1.454424 -1.442474)" stroke-width="8.496" stroke-linejoin="round"/><g stroke-linecap="round" stroke-width="9.999"><path d="M80.318 169.787s-.695-4.662.433-14.577c.903-7.929 3.333-15.935 5.869-22.026 3.051-7.328 8.45-16.122 8.45-16.122" transform="scale(.26458333)"/><path d="M88.231 63.641s-14.428-.539-33.808 1.711c-19.254 2.235-34.472 8.655-34.472 8.655" transform="matrix(.264583 0 0 .264583 .542401 1.501511)"/><path d="M87.544 110.817s-15.182-.917-31.781 2.06c-21.902 3.928-32.72 11.73-32.72 11.73" transform="matrix(.264583 0 0 .264583 -.275951 -.869963)" stroke-linejoin="round"/></g></g></svg>