<svg xmlns="http://www.w3.org/2000/svg" width="192" height="192" viewBox="0 0 50.8 50.8" xmlns:v="https://vecta.io/nano"><path d="M5.843 32.571l9.373-4.476 6.699 1.627 9.736-9.691" fill="none" stroke="#000" stroke-width="3.175" stroke-linecap="round" stroke-linejoin="round"/><ellipse cx="65.35" cy="39.1" transform="matrix(.348405 0 0 .308512 13.365399 2.486148)" rx="11.6" ry="13.1"/><g fill="none" stroke="#000" stroke-linecap="round"><path d="M29.699 15.782l-3.321.82m3.995-5.185l-3.162-1.601m6.496-1.151l-1.336-3.36m5.702 3.201l1.072-3.347m2.42 6.059l3.016-1.879m-2.204 6.058l3.254.476m-5.336 3.508l2.302 2.553" stroke-linejoin="round" stroke-width="1.852"/><path d="M8.758 41.81v-4.747m6.625 4.747v-8.014m6.532 8.014v-6.796m6.671 6.796v-11.2m6.704 11.2V24.638" stroke-width="3.175"/></g></svg>