<svg xmlns="http://www.w3.org/2000/svg" width="192" height="192" viewBox="0 0 50.8 50.8" xmlns:v="https://vecta.io/nano"><path d="M44.224 19.235c.754-3.747 1.064-7.492.36-11.215-2.663 2.678-5.325 4.773-8.014 6.126m-3.437-2.717c-3.349-1.447-7.431-1.612-11.346-.991M19.47 21.252c-1.645-4.376-2.088-8.857-1.175-13.471 2.819 2.546 5.978 4.747 9.528 6.55m-14.796-.81c-2.652 1.898-5.487 5.012-7.208 8.188 2.663-.318 5.386-.292 7.761.504-4.704 3.489-7.121 8.715-7.546 14.519 4.046-2.917 7.028-4.136 10.7-4.73-2.767 1.538-3.846 6.482-3.872 11.017 4.057-3.017 7.787-3.67 11.105-3.428 2.156 1.32 4.905 2.042 7.358 2.178 3.066.17 5.587-.493 7.458-1.42m-6.073-4.225c-1.288.238-3.006.896-4.779.262-4.558-1.631-5.729-8.198-3.747-12.228.353-.69 1.086-1.242 2.199-.994 2.444.469 6.128 3.064 7.707 6.77.431 1.01 1.426 2.077 2.247 2.077.977 0 1.895-.834 2.264-2.028 1.407-4.556 3.152-6.064 4.48-6.514.709-.24 1.168.028 1.358.8.206.778.316 1.871.304 3.088-.034 3.272-1.681 8.89-4.92 9.006-.872-.017-1.6-.452-3.196-.555-.938-.06-2.176-.006-3.918.316z" fill="none" stroke="#000" stroke-width="3.175" stroke-linecap="round" stroke-linejoin="round"/><path d="M29.196 29.398a1.588 1.588 0 0 0-1.588 1.588 1.588 1.588 0 0 0 1.588 1.586 1.588 1.588 0 0 0 1.586-1.586 1.588 1.588 0 0 0-1.586-1.588z"/></svg>