<svg xmlns="http://www.w3.org/2000/svg" width="24" height="24" fill="none" xmlns:v="https://vecta.io/nano"><path d="M18.75 3.004H5.25C4.013 3.004 3 4.016 3 5.25v2.893l3.073 1.782c.232.134.52.134.752 0l6.103-3.505a.57.57 0 0 1 .559-.004l.629.359c.176.102.165.376.011.468l-7.281 4.191c-.26.148-.517.151-.788 0L3 9.662v1.515l3.073 1.782c.232.134.52.134.752 0l6.1-3.505a.57.57 0 0 1 .559-.004l.629.359c.176.098.165.376.011.464l-7.284 4.191c-.26.148-.517.151-.787 0l-3.059-1.772v1.515l3.073 1.782c.232.137.52.134.752 0l6.1-3.509a.57.57 0 0 1 .559-.004l.629.359c.176.098.165.376.011.464l-7.27 4.198c-.26.148-.517.151-.788.004L3 15.727v3.023A2.26 2.26 0 0 0 5.25 21h13.5A2.26 2.26 0 0 0 21 18.75V5.25c0-1.234-1.012-2.25-2.25-2.246z" fill="#000"/></svg>