<svg xmlns="http://www.w3.org/2000/svg" width="24" height="24" fill="none" xmlns:v="https://vecta.io/nano"><path d="M12.743 13.455s.356.03.547-.206l.373-.47c.18-.233.615-.381 1.04-.144a11.005 11.005 0 0 1 .928.592l.863.69c.276.233.339.574.152.934a3.896 3.896 0 0 1-.779.964q-.408.341-.796.387a.522.522 0 0 1-.115.007 1.05 1.05 0 0 1-.336-.052l-.008-.012c-.398-.112-1.062-.393-2.169-1.004a12.917 12.917 0 0 1-1.822-1.204 9.553 9.553 0 0 1-.82-.727l-.028-.028-.028-.028h0l-.028-.028-.028-.028a9.553 9.553 0 0 1-.727-.82A12.93 12.93 0 0 1 7.76 10.46c-.61-1.107-.891-1.771-1.004-2.169l-.012-.008a1.05 1.05 0 0 1-.051-.336.506.506 0 0 1 .007-.115q.048-.387.382-.79a3.888 3.888 0 0 1 .962-.784c.368-.189.709-.126.941.148a25.13 25.13 0 0 1 .69.863 11.005 11.005 0 0 1 .592.929c.237.425.089.861-.144 1.04l-.47.373c-.237.191-.206.547-.206.547s.696 2.633 3.295 3.297zm-.878-7.875a.253.253 0 0 0-.256.252.253.253 0 0 0 .252.254c1.353.009 2.454.447 3.355 1.326.894.872 1.351 2.057 1.363 3.611a.253.253 0 0 0 .254.252.253.253 0 0 0 .252-.256c-.013-1.653-.517-2.995-1.516-3.969-.991-.966-2.243-1.461-3.705-1.471zm.463 1.313a.253.253 0 0 0-.037.506c.966.071 1.682.386 2.205.957s.773 1.269.754 2.141a.253.253 0 0 0 .506.012c.021-.977-.276-1.827-.887-2.494-.618-.674-1.481-1.044-2.541-1.121zm.379 1.357a.253.253 0 1 0-.027.506c.436.023.731.146.93.352s.321.515.344.971a.253.253 0 0 0 .264.24.253.253 0 0 0 .24-.264c-.027-.537-.179-.984-.484-1.299s-.743-.479-1.266-.506zm6.636-4.299c-.497-.459-2.505-1.917-6.979-1.936 0 0-5.276-.318-7.847 2.041-1.432 1.432-1.935 3.527-1.988 6.125s-.122 7.466 4.571 8.786h.005L7.1 20.98s-.03.815.507.982c.649.202 1.031-.418 1.651-1.086l1.164-1.317c3.209.27 5.677-.347 5.958-.438.648-.21 4.315-.68 4.911-5.548.616-5.017-.298-8.191-1.948-9.621zm.544 9.261c-.503 4.064-3.477 4.32-4.026 4.496-.233.075-2.401.614-5.127.436l-2.666 3.088c-.099.1-.215.14-.293.12-.109-.027-.139-.156-.138-.345l.017-3.347c-3.969-1.102-3.738-5.245-3.693-7.415s.453-3.947 1.663-5.142c2.175-1.97 6.656-1.676 6.656-1.676 3.784.017 5.598 1.156 6.018 1.538 1.396 1.195 2.107 4.056 1.587 8.247z" fill="#000"/></svg>