<svg xmlns="http://www.w3.org/2000/svg" width="192" height="192" viewBox="0 0 50.8 50.8" xmlns:v="https://vecta.io/nano"><style><![CDATA[.B{stroke-width:3.175}.C{stroke-linejoin:round}.D{stroke-linecap:round}]]></style><g stroke="#000" fill="none" class="C"><circle cx="139.525" cy="77.8" r="8.537" transform="matrix(.495206 0 0 .502237 -28.066043 -20.103896)" stroke-width="6.366"/><path d="M5.572 14.682l3.102 8.576h1.606l3.102-8.576m4.066 0v8.576m4.183.021v-8.597h2.211l2.484 8.576h1.606l2.484-8.576h2.211l.023 8.597M18.257 36.013v-8.597h4.014c2.14.107 3.204 1.249 3.204 2.987s-1.062 2.987-3.204 2.987h-4.014" class="B D"/></g><g fill="none" stroke="#000" class="B C D"><path d="M28.125 36.013l3.293-8.597h2.249l3.293 8.597"/><path d="M36.368 34.378h-7.585"/></g><g fill="none" stroke="#000" class="C B"><path d="M38.706 27.415l2.945 5.222 2.945-5.222m-2.945 5.223v3.375" class="D"/><rect width="8.596" height="8.596" x="5.571" y="27.416" rx=".794" paint-order="stroke fill markers"/></g></svg>