<svg xmlns="http://www.w3.org/2000/svg" width="192" height="192" viewBox="0 0 50.8 50.8" xmlns:v="https://vecta.io/nano"><g transform="matrix(.956384 0 0 .958154 1.107849 1.0629)" stroke="#000" fill="none"><g stroke-width="3.317" stroke-linejoin="round"><circle r="13.891" cy="25.4" cx="25.4" paint-order="stroke fill markers"/><path d="M25.4 4.961h-7.673l-.397 5.826c-.299 2.586-1.515 4.559-1.515 4.559M25.4 4.961h7.673l.397 5.826c.299 2.586 1.515 4.559 1.515 4.559M25.4 45.839h-7.673l-.397-5.826c-.299-2.586-1.515-4.559-1.515-4.559M25.4 45.839h7.673l.397-5.826c.299-2.586 1.515-4.559 1.515-4.559" stroke-linecap="round"/></g><path d="M10.045 12.927l2.118 6.481 2.118-6.076 2.118 6.076 2.118-6.481" transform="matrix(1.531491 0 0 1.533753 3.527358 .603535)" stroke-width="2.164" stroke-linecap="round" stroke-linejoin="round"/></g></svg>