<svg xmlns="http://www.w3.org/2000/svg" width="192" height="192" viewBox="0 0 50.8 50.8" xmlns:v="https://vecta.io/nano"><g stroke-linejoin="round" stroke="#000" fill="none"><circle cx="82.9" cy="78.9" r="44" transform="matrix(.444981 0 0 .444981 -11.488941 -9.70901)" stroke-width="7.135"/><g stroke-linecap="round" stroke-width="2.117"><path d="M38.745 18.867s1.445 4.765.619 10.005c-.802 5.09-5.9 8.648-5.9 8.648m-.271-19.49s1.384 4.887.206 10.164c-1.099 4.923-6.139 8.369-6.139 8.369"/><path d="M44.305 24.837s-3.199 1.209-7.551.989c-3.915-.198-7.864-2.024-7.864-2.024m-.692 6.836s4.455 1.595 7.551 1.636c4.206.056 7.646-.905 7.646-.905"/></g></g><circle cx="54.9" cy="95.9" r="13.85" transform="matrix(.32476 0 0 .32476 .020235 -5.60553)"/><g fill="none" stroke="#000" stroke-linejoin="round" stroke-linecap="round" stroke-width="2.117"><path d="M17.85 32.815V18.263"/><path d="M10.573 25.539h14.552"/><path d="M21.474 31.848L14.225 19.23"/><path d="M14.211 31.84l7.276-12.602"/><path d="M24.151 29.177l-12.602-7.276"/><path d="M11.548 29.177l12.602-7.276"/></g></svg>