<svg xmlns="http://www.w3.org/2000/svg" width="256" height="256" viewBox="0 0 192 192" preserveAspectRatio="xMidYMid meet" xmlns:v="https://vecta.io/nano"><path d="M78.1 19.5c-7.9 1.9-10.4 6.2-6 10.6 1.6 1.6 2.8 2 5.3 1.4 15.5-3.3 26.4-2.9 38.5 1.1 24.4 8.2 41.5 28.9 45.2 54.7 4.4 30.1-15.6 61.5-45.4 71.3-11.4 3.8-27.6 4-38.7.6-11.2-3.5-19.6-8.6-28.1-17.1-16-16-22.8-37.6-18.5-58.9 1.9-9.2 1.3-11.6-2.9-12.6-6.5-1.6-8.5 3.2-9.2 22-.4 11.1-.2 14.3 1.6 21.5 7.3 28.8 27.9 49.6 56.5 56.9 10.8 2.7 27.3 2.7 38.2 0 26.5-6.7 47.3-26.5 55.6-53 2-6.5 2.3-9.5 2.3-23-.1-14.3-.3-16.1-2.8-23.5-9.1-26.1-29.3-45-55.1-51.5-9.3-2.4-27.8-2.6-36.5-.5z"/><path d="M40.7 40.8C27.3 54.2 25 57 25 59.6c0 3.8 1.6 5.4 5.4 5.4 2.6 0 5.4-2.4 18.8-15.8 16.5-16.5 18-18.9 14.2-22.6-3.8-3.8-6.2-2.3-22.7 14.2zM62 96v20.1l5.8-.3 5.7-.3.3-14.3.3-14.2h10.3c13.8 0 13.6-.2 13.6 16.3V116h5.5 5.5v-16c0-24.4.5-24-27.4-24H62v20zm54 0v20h5.5 5.5V96 76h-5.5-5.5v20zm-35.3-2.3c-.4.3-.7 5.5-.7 11.5V116h5.5H91v-11.5V93h-4.8c-2.7 0-5.2.3-5.5.7z"/></svg>